# xmcd CD database file
#
# Track frame offsets:
#	150
#	19027
#	29386
#	50817
#	69516
#	79518
#	92234
#	117363
#	133076
#
# Disc length: 2049 seconds
#
# Revision: 0
# Processed by: cddbd v1.5.1PL0 Copyright (c) Steve Scherf et al.
# Submitted via: CDex 1.51
#
DISCID=7607ff09
DTITLE=Charlie Musselwhite - Louisana Fog
DYEAR=1900
DGENRE=Blues
TTITLE0=Louisana Fog
TTITLE1=Takin' Care of Business
TTITLE2=Big Legged Woman
TTITLE3=Riffin'
TTITLE4=Leavin'
TTITLE5=Just A Little Bit
TTITLE6=Fell On My Knees
TTITLE7=Directly From My Heart
TTITLE8=Fat City
EXTD=
EXTT0=
EXTT1=
EXTT2=
EXTT3=
EXTT4=
EXTT5=
EXTT6=
EXTT7=
EXTT8=
PLAYORDER=
